# xmcd CD database file
#
# Track frame offsets:
#	150
#	22612
#	42450
#	62923
#	76499
#	106313
#	131889
#	150341
#	176152
#	215302
#	231352
#	252691
#	273467
#	289793
#	309443
#
# Disc length: 4378 seconds
#
# Revision: 0
# Processed by: cddbd v1.5PL3 Copyright (c) Steve Scherf et al.
# Submitted via: CDex 1.51
#
DISCID=d611180f
DTITLE=Blues Paradise Good Whiskey Blues vol.11 - A Collection Of Blues Songs From The World
DYEAR=2000
DGENRE=Blues
TTITLE0=Coolin James - Hate It When I See You Cry
TTITLE1=Big Time Sarah - The Trill Is Gone
TTITLE2=Best and Blues Power - Catfish Blues
TTITLE3=Tony D. Band - Wonderling Mind
TTITLE4=Tim Brocks - Blind Willie Metell
TTITLE5=Hardface And The Heat - You Will Never Know
TTITLE6=Ronander Blues - Early In The Morning
TTITLE7=Elliott And The Untouchables - Be Back Home
TTITLE8=JW - Jones Blues Band - Whitin' Around
TTITLE9=Lee Baker and The Agitators - You Can't Catch Me
TTITLE10=Reddog - She's Gone
TTITLE11=Mike Morgan and Jim Suhler - You Hurt Me
TTITLE12=Sven Zetterberg And The CHicago Express - Cry Before I Go
TTITLE13=Johnny Neel - What Am I
TTITLE14=Arthur Brown - Smokes Tack Lightning
EXTD=YEAR: 2000
EXTT0=
EXTT1=
EXTT2=
EXTT3=
EXTT4=
EXTT5=
EXTT6=
EXTT7=
EXTT8=
EXTT9=
EXTT10=
EXTT11=
EXTT12=
EXTT13=
EXTT14=
PLAYORDER=
